<svg xmlns="http://www.w3.org/2000/svg" width="18" height="18" viewBox="0 0 18 18" fill="none">
<mask id="path-1-outside-1_1347_4774" maskUnits="userSpaceOnUse" x="0" y="0.499512" width="18" height="17" fill="black">
<rect fill="white" y="0.499512" width="18" height="17"/>
<path fill-rule="evenodd" clip-rule="evenodd" d="M7.43726 1.93396C8.0427 2.22094 8.57656 2.63927 9 3.15852C9.826 2.14552 11.09 1.49952 12.5 1.49952C14.976 1.49952 17 3.48952 17 5.96652C17 8.21752 15.733 10.3065 14.273 12.0105C12.792 13.7385 10.976 15.2285 9.614 16.2885C9.43846 16.4251 9.2224 16.4992 9 16.4992C8.7776 16.4992 8.56154 16.4251 8.386 16.2885C7.024 15.2285 5.208 13.7395 3.727 12.0105C2.267 10.3065 1 8.21752 1 5.96652C1 3.48952 3.024 1.49952 5.5 1.49952C6.17001 1.49857 6.83181 1.64698 7.43726 1.93396Z"/>
</mask>
<path fill-rule="evenodd" clip-rule="evenodd" d="M7.43726 1.93396C8.0427 2.22094 8.57656 2.63927 9 3.15852C9.826 2.14552 11.09 1.49952 12.5 1.49952C14.976 1.49952 17 3.48952 17 5.96652C17 8.21752 15.733 10.3065 14.273 12.0105C12.792 13.7385 10.976 15.2285 9.614 16.2885C9.43846 16.4251 9.2224 16.4992 9 16.4992C8.7776 16.4992 8.56154 16.4251 8.386 16.2885C7.024 15.2285 5.208 13.7395 3.727 12.0105C2.267 10.3065 1 8.21752 1 5.96652C1 3.48952 3.024 1.49952 5.5 1.49952C6.17001 1.49857 6.83181 1.64698 7.43726 1.93396Z" fill="white"/>
<path d="M9 3.15852L8.22502 3.7905L9.00004 4.74088L9.77501 3.79046L9 3.15852ZM7.43726 1.93396L7.86558 1.03033L7.43726 1.93396ZM14.273 12.0105L15.0323 12.6613L15.0324 12.6612L14.273 12.0105ZM9.614 16.2885L10.228 17.0778L10.2282 17.0777L9.614 16.2885ZM8.386 16.2885L7.77182 17.0777L7.772 17.0778L8.386 16.2885ZM3.727 12.0105L4.48647 11.36L4.48638 11.3599L3.727 12.0105ZM5.5 1.49952V2.49952L5.50142 2.49952L5.5 1.49952ZM9.77498 2.52653C9.25761 1.8921 8.60532 1.38097 7.86558 1.03033L7.00894 2.83759C7.48008 3.06091 7.89551 3.38644 8.22502 3.7905L9.77498 2.52653ZM12.5 0.499516C10.7788 0.499516 9.23407 1.28904 8.22499 2.52657L9.77501 3.79046C10.4179 3.00199 11.4012 2.49952 12.5 2.49952V0.499516ZM18 5.96652C18 2.92752 15.5185 0.499516 12.5 0.499516V2.49952C14.4335 2.49952 16 4.05151 16 5.96652H18ZM15.0324 12.6612C16.5402 10.9014 18 8.58121 18 5.96652H16C16 7.85382 14.9258 9.71163 13.5136 11.3599L15.0324 12.6612ZM10.2282 17.0777C11.601 16.0093 13.483 14.469 15.0323 12.6613L13.5137 11.3598C12.101 13.0081 10.351 14.4477 8.99982 15.4994L10.2282 17.0777ZM9 17.4992C9.44481 17.4992 9.87692 17.3509 10.228 17.0778L9 15.4992L9 15.4992V17.4992ZM7.772 17.0778C8.12308 17.3509 8.55519 17.4992 9 17.4992V15.4992V15.4992L7.772 17.0778ZM2.96753 12.6611C4.517 14.47 6.39929 16.0095 7.77182 17.0777L9.00018 15.4994C7.64871 14.4475 5.899 13.009 4.48647 11.36L2.96753 12.6611ZM0 5.96652C0 8.58121 1.45985 10.9014 2.96762 12.6612L4.48638 11.3599C3.07415 9.71162 2 7.85382 2 5.96652H0ZM5.5 0.499516C2.48147 0.499516 0 2.92752 0 5.96652H2C2 4.05151 3.56653 2.49952 5.5 2.49952V0.499516ZM7.86558 1.03033C7.12583 0.679692 6.31722 0.498356 5.49858 0.499517L5.50142 2.49952C6.0228 2.49878 6.5378 2.61427 7.00894 2.83759L7.86558 1.03033Z" fill="white" mask="url(#path-1-outside-1_1347_4774)"/>
</svg>